G04 #@! TF.GenerationSoftware,KiCad,Pcbnew,9.0.1*
G04 #@! TF.CreationDate,2026-02-11T02:11:43+05:30*
G04 #@! TF.ProjectId,kicadfiles.txt,6b696361-6466-4696-9c65-732e7478742e,rev?*
G04 #@! TF.SameCoordinates,Original*
G04 #@! TF.FileFunction,Legend,Bot*
G04 #@! TF.FilePolarity,Positive*
%FSLAX46Y46*%
G04 Gerber Fmt 4.6, Leading zero omitted, Abs format (unit mm)*
G04 Created by KiCad (PCBNEW 9.0.1) date 2026-02-11 02:11:43*
%MOMM*%
%LPD*%
G01*
G04 APERTURE LIST*
G04 Aperture macros list*
%AMRoundRect*
0 Rectangle with rounded corners*
0 $1 Rounding radius*
0 $2 $3 $4 $5 $6 $7 $8 $9 X,Y pos of 4 corners*
0 Add a 4 corners polygon primitive as box body*
4,1,4,$2,$3,$4,$5,$6,$7,$8,$9,$2,$3,0*
0 Add four circle primitives for the rounded corners*
1,1,$1+$1,$2,$3*
1,1,$1+$1,$4,$5*
1,1,$1+$1,$6,$7*
1,1,$1+$1,$8,$9*
0 Add four rect primitives between the rounded corners*
20,1,$1+$1,$2,$3,$4,$5,0*
20,1,$1+$1,$4,$5,$6,$7,0*
20,1,$1+$1,$6,$7,$8,$9,0*
20,1,$1+$1,$8,$9,$2,$3,0*%
G04 Aperture macros list end*
%ADD10C,0.150000*%
%ADD11C,0.120000*%
%ADD12R,3.000000X3.000000*%
%ADD13C,3.000000*%
%ADD14R,2.020000X5.020000*%
%ADD15O,2.020000X5.020000*%
%ADD16R,3.200000X3.200000*%
%ADD17O,3.200000X3.200000*%
%ADD18RoundRect,0.250000X-2.050000X-0.300000X2.050000X-0.300000X2.050000X0.300000X-2.050000X0.300000X0*%
%ADD19RoundRect,0.250002X-4.449998X-5.149998X4.449998X-5.149998X4.449998X5.149998X-4.449998X5.149998X0*%
%ADD20R,2.200000X1.500000*%
G04 APERTURE END LIST*
D10*
X131396666Y-71454819D02*
X131872856Y-71454819D01*
X131872856Y-71454819D02*
X131872856Y-70454819D01*
X130539523Y-71454819D02*
X131110951Y-71454819D01*
X130825237Y-71454819D02*
X130825237Y-70454819D01*
X130825237Y-70454819D02*
X130920475Y-70597676D01*
X130920475Y-70597676D02*
X131015713Y-70692914D01*
X131015713Y-70692914D02*
X131110951Y-70740533D01*
D11*
X154655000Y-66550000D02*
X154655000Y-67500000D01*
X154655000Y-76950000D02*
X154655000Y-76000000D01*
X156020000Y-66550000D02*
X154655000Y-66550000D01*
X156020000Y-76950000D02*
X154655000Y-76950000D01*
X152170000Y-76430000D02*
X151490000Y-76430000D01*
X151830000Y-75960000D01*
X152170000Y-76430000D01*
G36*
X152170000Y-76430000D02*
G01*
X151490000Y-76430000D01*
X151830000Y-75960000D01*
X152170000Y-76430000D01*
G37*
X129280000Y-67050000D02*
X129280000Y-74450000D01*
X129280000Y-74450000D02*
X131580000Y-74450000D01*
X131580000Y-67050000D02*
X129280000Y-67050000D01*
X134380000Y-74450000D02*
X136680000Y-74450000D01*
X136680000Y-67050000D02*
X134380000Y-67050000D01*
X136680000Y-74450000D02*
X136680000Y-67050000D01*
%LPC*%
D12*
X162230000Y-83842500D03*
D13*
X162230000Y-87722500D03*
D14*
X146500000Y-83800000D03*
D15*
X141320000Y-83800000D03*
D16*
X152480000Y-91100000D03*
D17*
X152480000Y-78400000D03*
D18*
X151830000Y-75150000D03*
X151830000Y-73450000D03*
X151830000Y-71750000D03*
D19*
X160980000Y-71750000D03*
D18*
X151830000Y-70050000D03*
X151830000Y-68350000D03*
D20*
X132980000Y-73950000D03*
X132980000Y-67550000D03*
%LPD*%
M02*
