G04 #@! TF.GenerationSoftware,KiCad,Pcbnew,9.0.1*
G04 #@! TF.CreationDate,2026-02-11T02:11:43+05:30*
G04 #@! TF.ProjectId,kicadfiles.txt,6b696361-6466-4696-9c65-732e7478742e,rev?*
G04 #@! TF.SameCoordinates,Original*
G04 #@! TF.FileFunction,Legend,Top*
G04 #@! TF.FilePolarity,Positive*
%FSLAX46Y46*%
G04 Gerber Fmt 4.6, Leading zero omitted, Abs format (unit mm)*
G04 Created by KiCad (PCBNEW 9.0.1) date 2026-02-11 02:11:43*
%MOMM*%
%LPD*%
G01*
G04 APERTURE LIST*
G04 Aperture macros list*
%AMRoundRect*
0 Rectangle with rounded corners*
0 $1 Rounding radius*
0 $2 $3 $4 $5 $6 $7 $8 $9 X,Y pos of 4 corners*
0 Add a 4 corners polygon primitive as box body*
4,1,4,$2,$3,$4,$5,$6,$7,$8,$9,$2,$3,0*
0 Add four circle primitives for the rounded corners*
1,1,$1+$1,$2,$3*
1,1,$1+$1,$4,$5*
1,1,$1+$1,$6,$7*
1,1,$1+$1,$8,$9*
0 Add four rect primitives between the rounded corners*
20,1,$1+$1,$2,$3,$4,$5,0*
20,1,$1+$1,$4,$5,$6,$7,0*
20,1,$1+$1,$6,$7,$8,$9,0*
20,1,$1+$1,$8,$9,$2,$3,0*%
G04 Aperture macros list end*
%ADD10C,0.100000*%
%ADD11C,0.150000*%
%ADD12C,0.120000*%
%ADD13R,3.000000X3.000000*%
%ADD14C,3.000000*%
%ADD15RoundRect,0.100000X-0.100000X0.130000X-0.100000X-0.130000X0.100000X-0.130000X0.100000X0.130000X0*%
%ADD16R,2.020000X5.020000*%
%ADD17O,2.020000X5.020000*%
%ADD18R,3.200000X3.200000*%
%ADD19O,3.200000X3.200000*%
%ADD20RoundRect,0.100000X0.130000X0.100000X-0.130000X0.100000X-0.130000X-0.100000X0.130000X-0.100000X0*%
G04 APERTURE END LIST*
D10*
X130766265Y-91885752D02*
X131480550Y-91885752D01*
X131051979Y-91457180D02*
X130766265Y-92742895D01*
X131385312Y-92314323D02*
X130671027Y-92314323D01*
X131099598Y-92742895D02*
X131385312Y-91457180D01*
X131766265Y-91647657D02*
X131813884Y-91600038D01*
X131813884Y-91600038D02*
X131909122Y-91552419D01*
X131909122Y-91552419D02*
X132147217Y-91552419D01*
X132147217Y-91552419D02*
X132242455Y-91600038D01*
X132242455Y-91600038D02*
X132290074Y-91647657D01*
X132290074Y-91647657D02*
X132337693Y-91742895D01*
X132337693Y-91742895D02*
X132337693Y-91838133D01*
X132337693Y-91838133D02*
X132290074Y-91980990D01*
X132290074Y-91980990D02*
X131718646Y-92552419D01*
X131718646Y-92552419D02*
X132337693Y-92552419D01*
X133385313Y-91552419D02*
X133718646Y-92552419D01*
X133718646Y-92552419D02*
X134051979Y-91552419D01*
X134528170Y-92552419D02*
X134432932Y-92504800D01*
X134432932Y-92504800D02*
X134385313Y-92457180D01*
X134385313Y-92457180D02*
X134337694Y-92361942D01*
X134337694Y-92361942D02*
X134337694Y-92076228D01*
X134337694Y-92076228D02*
X134385313Y-91980990D01*
X134385313Y-91980990D02*
X134432932Y-91933371D01*
X134432932Y-91933371D02*
X134528170Y-91885752D01*
X134528170Y-91885752D02*
X134671027Y-91885752D01*
X134671027Y-91885752D02*
X134766265Y-91933371D01*
X134766265Y-91933371D02*
X134813884Y-91980990D01*
X134813884Y-91980990D02*
X134861503Y-92076228D01*
X134861503Y-92076228D02*
X134861503Y-92361942D01*
X134861503Y-92361942D02*
X134813884Y-92457180D01*
X134813884Y-92457180D02*
X134766265Y-92504800D01*
X134766265Y-92504800D02*
X134671027Y-92552419D01*
X134671027Y-92552419D02*
X134528170Y-92552419D01*
X135432932Y-92552419D02*
X135337694Y-92504800D01*
X135337694Y-92504800D02*
X135290075Y-92409561D01*
X135290075Y-92409561D02*
X135290075Y-91552419D01*
X135671028Y-91885752D02*
X136051980Y-91885752D01*
X135813885Y-91552419D02*
X135813885Y-92409561D01*
X135813885Y-92409561D02*
X135861504Y-92504800D01*
X135861504Y-92504800D02*
X135956742Y-92552419D01*
X135956742Y-92552419D02*
X136051980Y-92552419D01*
X136813885Y-92552419D02*
X136813885Y-92028609D01*
X136813885Y-92028609D02*
X136766266Y-91933371D01*
X136766266Y-91933371D02*
X136671028Y-91885752D01*
X136671028Y-91885752D02*
X136480552Y-91885752D01*
X136480552Y-91885752D02*
X136385314Y-91933371D01*
X136813885Y-92504800D02*
X136718647Y-92552419D01*
X136718647Y-92552419D02*
X136480552Y-92552419D01*
X136480552Y-92552419D02*
X136385314Y-92504800D01*
X136385314Y-92504800D02*
X136337695Y-92409561D01*
X136337695Y-92409561D02*
X136337695Y-92314323D01*
X136337695Y-92314323D02*
X136385314Y-92219085D01*
X136385314Y-92219085D02*
X136480552Y-92171466D01*
X136480552Y-92171466D02*
X136718647Y-92171466D01*
X136718647Y-92171466D02*
X136813885Y-92123847D01*
X137718647Y-91885752D02*
X137718647Y-92695276D01*
X137718647Y-92695276D02*
X137671028Y-92790514D01*
X137671028Y-92790514D02*
X137623409Y-92838133D01*
X137623409Y-92838133D02*
X137528171Y-92885752D01*
X137528171Y-92885752D02*
X137385314Y-92885752D01*
X137385314Y-92885752D02*
X137290076Y-92838133D01*
X137718647Y-92504800D02*
X137623409Y-92552419D01*
X137623409Y-92552419D02*
X137432933Y-92552419D01*
X137432933Y-92552419D02*
X137337695Y-92504800D01*
X137337695Y-92504800D02*
X137290076Y-92457180D01*
X137290076Y-92457180D02*
X137242457Y-92361942D01*
X137242457Y-92361942D02*
X137242457Y-92076228D01*
X137242457Y-92076228D02*
X137290076Y-91980990D01*
X137290076Y-91980990D02*
X137337695Y-91933371D01*
X137337695Y-91933371D02*
X137432933Y-91885752D01*
X137432933Y-91885752D02*
X137623409Y-91885752D01*
X137623409Y-91885752D02*
X137718647Y-91933371D01*
X138575790Y-92504800D02*
X138480552Y-92552419D01*
X138480552Y-92552419D02*
X138290076Y-92552419D01*
X138290076Y-92552419D02*
X138194838Y-92504800D01*
X138194838Y-92504800D02*
X138147219Y-92409561D01*
X138147219Y-92409561D02*
X138147219Y-92028609D01*
X138147219Y-92028609D02*
X138194838Y-91933371D01*
X138194838Y-91933371D02*
X138290076Y-91885752D01*
X138290076Y-91885752D02*
X138480552Y-91885752D01*
X138480552Y-91885752D02*
X138575790Y-91933371D01*
X138575790Y-91933371D02*
X138623409Y-92028609D01*
X138623409Y-92028609D02*
X138623409Y-92123847D01*
X138623409Y-92123847D02*
X138147219Y-92219085D01*
X140385314Y-92552419D02*
X140051981Y-92076228D01*
X139813886Y-92552419D02*
X139813886Y-91552419D01*
X139813886Y-91552419D02*
X140194838Y-91552419D01*
X140194838Y-91552419D02*
X140290076Y-91600038D01*
X140290076Y-91600038D02*
X140337695Y-91647657D01*
X140337695Y-91647657D02*
X140385314Y-91742895D01*
X140385314Y-91742895D02*
X140385314Y-91885752D01*
X140385314Y-91885752D02*
X140337695Y-91980990D01*
X140337695Y-91980990D02*
X140290076Y-92028609D01*
X140290076Y-92028609D02*
X140194838Y-92076228D01*
X140194838Y-92076228D02*
X139813886Y-92076228D01*
X141194838Y-92504800D02*
X141099600Y-92552419D01*
X141099600Y-92552419D02*
X140909124Y-92552419D01*
X140909124Y-92552419D02*
X140813886Y-92504800D01*
X140813886Y-92504800D02*
X140766267Y-92409561D01*
X140766267Y-92409561D02*
X140766267Y-92028609D01*
X140766267Y-92028609D02*
X140813886Y-91933371D01*
X140813886Y-91933371D02*
X140909124Y-91885752D01*
X140909124Y-91885752D02*
X141099600Y-91885752D01*
X141099600Y-91885752D02*
X141194838Y-91933371D01*
X141194838Y-91933371D02*
X141242457Y-92028609D01*
X141242457Y-92028609D02*
X141242457Y-92123847D01*
X141242457Y-92123847D02*
X140766267Y-92219085D01*
X142099600Y-91885752D02*
X142099600Y-92695276D01*
X142099600Y-92695276D02*
X142051981Y-92790514D01*
X142051981Y-92790514D02*
X142004362Y-92838133D01*
X142004362Y-92838133D02*
X141909124Y-92885752D01*
X141909124Y-92885752D02*
X141766267Y-92885752D01*
X141766267Y-92885752D02*
X141671029Y-92838133D01*
X142099600Y-92504800D02*
X142004362Y-92552419D01*
X142004362Y-92552419D02*
X141813886Y-92552419D01*
X141813886Y-92552419D02*
X141718648Y-92504800D01*
X141718648Y-92504800D02*
X141671029Y-92457180D01*
X141671029Y-92457180D02*
X141623410Y-92361942D01*
X141623410Y-92361942D02*
X141623410Y-92076228D01*
X141623410Y-92076228D02*
X141671029Y-91980990D01*
X141671029Y-91980990D02*
X141718648Y-91933371D01*
X141718648Y-91933371D02*
X141813886Y-91885752D01*
X141813886Y-91885752D02*
X142004362Y-91885752D01*
X142004362Y-91885752D02*
X142099600Y-91933371D01*
X143004362Y-91885752D02*
X143004362Y-92552419D01*
X142575791Y-91885752D02*
X142575791Y-92409561D01*
X142575791Y-92409561D02*
X142623410Y-92504800D01*
X142623410Y-92504800D02*
X142718648Y-92552419D01*
X142718648Y-92552419D02*
X142861505Y-92552419D01*
X142861505Y-92552419D02*
X142956743Y-92504800D01*
X142956743Y-92504800D02*
X143004362Y-92457180D01*
X143623410Y-92552419D02*
X143528172Y-92504800D01*
X143528172Y-92504800D02*
X143480553Y-92409561D01*
X143480553Y-92409561D02*
X143480553Y-91552419D01*
X144432934Y-92552419D02*
X144432934Y-92028609D01*
X144432934Y-92028609D02*
X144385315Y-91933371D01*
X144385315Y-91933371D02*
X144290077Y-91885752D01*
X144290077Y-91885752D02*
X144099601Y-91885752D01*
X144099601Y-91885752D02*
X144004363Y-91933371D01*
X144432934Y-92504800D02*
X144337696Y-92552419D01*
X144337696Y-92552419D02*
X144099601Y-92552419D01*
X144099601Y-92552419D02*
X144004363Y-92504800D01*
X144004363Y-92504800D02*
X143956744Y-92409561D01*
X143956744Y-92409561D02*
X143956744Y-92314323D01*
X143956744Y-92314323D02*
X144004363Y-92219085D01*
X144004363Y-92219085D02*
X144099601Y-92171466D01*
X144099601Y-92171466D02*
X144337696Y-92171466D01*
X144337696Y-92171466D02*
X144432934Y-92123847D01*
X144766268Y-91885752D02*
X145147220Y-91885752D01*
X144909125Y-91552419D02*
X144909125Y-92409561D01*
X144909125Y-92409561D02*
X144956744Y-92504800D01*
X144956744Y-92504800D02*
X145051982Y-92552419D01*
X145051982Y-92552419D02*
X145147220Y-92552419D01*
X145623411Y-92552419D02*
X145528173Y-92504800D01*
X145528173Y-92504800D02*
X145480554Y-92457180D01*
X145480554Y-92457180D02*
X145432935Y-92361942D01*
X145432935Y-92361942D02*
X145432935Y-92076228D01*
X145432935Y-92076228D02*
X145480554Y-91980990D01*
X145480554Y-91980990D02*
X145528173Y-91933371D01*
X145528173Y-91933371D02*
X145623411Y-91885752D01*
X145623411Y-91885752D02*
X145766268Y-91885752D01*
X145766268Y-91885752D02*
X145861506Y-91933371D01*
X145861506Y-91933371D02*
X145909125Y-91980990D01*
X145909125Y-91980990D02*
X145956744Y-92076228D01*
X145956744Y-92076228D02*
X145956744Y-92361942D01*
X145956744Y-92361942D02*
X145909125Y-92457180D01*
X145909125Y-92457180D02*
X145861506Y-92504800D01*
X145861506Y-92504800D02*
X145766268Y-92552419D01*
X145766268Y-92552419D02*
X145623411Y-92552419D01*
X146385316Y-92552419D02*
X146385316Y-91885752D01*
X146385316Y-92076228D02*
X146432935Y-91980990D01*
X146432935Y-91980990D02*
X146480554Y-91933371D01*
X146480554Y-91933371D02*
X146575792Y-91885752D01*
X146575792Y-91885752D02*
X146671030Y-91885752D01*
D11*
X166764819Y-86085833D02*
X167479104Y-86085833D01*
X167479104Y-86085833D02*
X167621961Y-86133452D01*
X167621961Y-86133452D02*
X167717200Y-86228690D01*
X167717200Y-86228690D02*
X167764819Y-86371547D01*
X167764819Y-86371547D02*
X167764819Y-86466785D01*
X166860057Y-85657261D02*
X166812438Y-85609642D01*
X166812438Y-85609642D02*
X166764819Y-85514404D01*
X166764819Y-85514404D02*
X166764819Y-85276309D01*
X166764819Y-85276309D02*
X166812438Y-85181071D01*
X166812438Y-85181071D02*
X166860057Y-85133452D01*
X166860057Y-85133452D02*
X166955295Y-85085833D01*
X166955295Y-85085833D02*
X167050533Y-85085833D01*
X167050533Y-85085833D02*
X167193390Y-85133452D01*
X167193390Y-85133452D02*
X167764819Y-85704880D01*
X167764819Y-85704880D02*
X167764819Y-85085833D01*
D10*
X142690000Y-74891752D02*
X142661428Y-74910800D01*
X142661428Y-74910800D02*
X142575714Y-74929847D01*
X142575714Y-74929847D02*
X142518571Y-74929847D01*
X142518571Y-74929847D02*
X142432857Y-74910800D01*
X142432857Y-74910800D02*
X142375714Y-74872704D01*
X142375714Y-74872704D02*
X142347143Y-74834609D01*
X142347143Y-74834609D02*
X142318571Y-74758419D01*
X142318571Y-74758419D02*
X142318571Y-74701276D01*
X142318571Y-74701276D02*
X142347143Y-74625085D01*
X142347143Y-74625085D02*
X142375714Y-74586990D01*
X142375714Y-74586990D02*
X142432857Y-74548895D01*
X142432857Y-74548895D02*
X142518571Y-74529847D01*
X142518571Y-74529847D02*
X142575714Y-74529847D01*
X142575714Y-74529847D02*
X142661428Y-74548895D01*
X142661428Y-74548895D02*
X142690000Y-74567942D01*
X143261428Y-74929847D02*
X142918571Y-74929847D01*
X143090000Y-74929847D02*
X143090000Y-74529847D01*
X143090000Y-74529847D02*
X143032857Y-74586990D01*
X143032857Y-74586990D02*
X142975714Y-74625085D01*
X142975714Y-74625085D02*
X142918571Y-74644133D01*
D11*
X122121666Y-79389819D02*
X122121666Y-80104104D01*
X122121666Y-80104104D02*
X122074047Y-80246961D01*
X122074047Y-80246961D02*
X121978809Y-80342200D01*
X121978809Y-80342200D02*
X121835952Y-80389819D01*
X121835952Y-80389819D02*
X121740714Y-80389819D01*
X123121666Y-80389819D02*
X122550238Y-80389819D01*
X122835952Y-80389819D02*
X122835952Y-79389819D01*
X122835952Y-79389819D02*
X122740714Y-79532676D01*
X122740714Y-79532676D02*
X122645476Y-79627914D01*
X122645476Y-79627914D02*
X122550238Y-79675533D01*
X151214819Y-83700594D02*
X150214819Y-83700594D01*
X150214819Y-83700594D02*
X150214819Y-83462499D01*
X150214819Y-83462499D02*
X150262438Y-83319642D01*
X150262438Y-83319642D02*
X150357676Y-83224404D01*
X150357676Y-83224404D02*
X150452914Y-83176785D01*
X150452914Y-83176785D02*
X150643390Y-83129166D01*
X150643390Y-83129166D02*
X150786247Y-83129166D01*
X150786247Y-83129166D02*
X150976723Y-83176785D01*
X150976723Y-83176785D02*
X151071961Y-83224404D01*
X151071961Y-83224404D02*
X151167200Y-83319642D01*
X151167200Y-83319642D02*
X151214819Y-83462499D01*
X151214819Y-83462499D02*
X151214819Y-83700594D01*
X151214819Y-82176785D02*
X151214819Y-82748213D01*
X151214819Y-82462499D02*
X150214819Y-82462499D01*
X150214819Y-82462499D02*
X150357676Y-82557737D01*
X150357676Y-82557737D02*
X150452914Y-82652975D01*
X150452914Y-82652975D02*
X150500533Y-82748213D01*
X150334819Y-91361904D02*
X149334819Y-91361904D01*
X150334819Y-90790476D02*
X149763390Y-91219047D01*
X149334819Y-90790476D02*
X149906247Y-91361904D01*
X142728333Y-70599580D02*
X142680714Y-70647200D01*
X142680714Y-70647200D02*
X142537857Y-70694819D01*
X142537857Y-70694819D02*
X142442619Y-70694819D01*
X142442619Y-70694819D02*
X142299762Y-70647200D01*
X142299762Y-70647200D02*
X142204524Y-70551961D01*
X142204524Y-70551961D02*
X142156905Y-70456723D01*
X142156905Y-70456723D02*
X142109286Y-70266247D01*
X142109286Y-70266247D02*
X142109286Y-70123390D01*
X142109286Y-70123390D02*
X142156905Y-69932914D01*
X142156905Y-69932914D02*
X142204524Y-69837676D01*
X142204524Y-69837676D02*
X142299762Y-69742438D01*
X142299762Y-69742438D02*
X142442619Y-69694819D01*
X142442619Y-69694819D02*
X142537857Y-69694819D01*
X142537857Y-69694819D02*
X142680714Y-69742438D01*
X142680714Y-69742438D02*
X142728333Y-69790057D01*
X143109286Y-69790057D02*
X143156905Y-69742438D01*
X143156905Y-69742438D02*
X143252143Y-69694819D01*
X143252143Y-69694819D02*
X143490238Y-69694819D01*
X143490238Y-69694819D02*
X143585476Y-69742438D01*
X143585476Y-69742438D02*
X143633095Y-69790057D01*
X143633095Y-69790057D02*
X143680714Y-69885295D01*
X143680714Y-69885295D02*
X143680714Y-69980533D01*
X143680714Y-69980533D02*
X143633095Y-70123390D01*
X143633095Y-70123390D02*
X143061667Y-70694819D01*
X143061667Y-70694819D02*
X143680714Y-70694819D01*
D12*
X157400000Y-85362500D02*
X157400000Y-81682500D01*
X157400000Y-85362500D02*
X157660000Y-85362500D01*
X157400000Y-86132500D02*
X157400000Y-89812500D01*
X157400000Y-89812500D02*
X162230000Y-89812500D01*
X157660000Y-85362500D02*
X157660000Y-86132500D01*
X157660000Y-86132500D02*
X157400000Y-86132500D01*
X162230000Y-81682500D02*
X157400000Y-81682500D01*
X164140000Y-81682500D02*
X162230000Y-81682500D01*
X164140000Y-81682500D02*
X164140000Y-89812500D01*
X164140000Y-82952500D02*
X165530000Y-82952500D01*
X164140000Y-88542500D02*
X165530000Y-88542500D01*
X164140000Y-89812500D02*
X162230000Y-89812500D01*
X164390000Y-82952500D02*
X164390000Y-88542500D01*
X164430000Y-81342500D02*
X162230000Y-81342500D01*
X164430000Y-82642500D02*
X164430000Y-81342500D01*
X165280000Y-82952500D02*
X165280000Y-88542500D01*
X165530000Y-82952500D02*
X165530000Y-88542500D01*
X127950000Y-88745000D02*
X141950000Y-88745000D01*
X141950000Y-78855000D02*
X127950000Y-78855000D01*
X141950000Y-80060000D02*
X141950000Y-78855000D01*
X141950000Y-87540000D02*
X147720000Y-87540000D01*
X141950000Y-88745000D02*
X141950000Y-87540000D01*
X147720000Y-80060000D02*
X141950000Y-80060000D01*
X147720000Y-87540000D02*
X147720000Y-80060000D01*
X149760000Y-79880000D02*
X150640000Y-79880000D01*
X149760000Y-87955000D02*
X155200000Y-87955000D01*
X149760000Y-88075000D02*
X155200000Y-88075000D01*
X149760000Y-88195000D02*
X155200000Y-88195000D01*
X149760000Y-89620000D02*
X149760000Y-79880000D01*
X150640000Y-89620000D02*
X149760000Y-89620000D01*
X154320000Y-89620000D02*
X155200000Y-89620000D01*
X155200000Y-79880000D02*
X154320000Y-79880000D01*
X155200000Y-89620000D02*
X155200000Y-79880000D01*
%LPC*%
D13*
X162230000Y-83842500D03*
D14*
X162230000Y-87722500D03*
D15*
X141135000Y-74430000D03*
X141135000Y-75070000D03*
D16*
X146500000Y-83800000D03*
D17*
X141320000Y-83800000D03*
D18*
X152480000Y-91100000D03*
D19*
X152480000Y-78400000D03*
D20*
X141560000Y-69870000D03*
X140920000Y-69870000D03*
%LPD*%
M02*
