G04 #@! TF.GenerationSoftware,KiCad,Pcbnew,9.0.1*
G04 #@! TF.CreationDate,2026-02-11T02:11:43+05:30*
G04 #@! TF.ProjectId,kicadfiles.txt,6b696361-6466-4696-9c65-732e7478742e,rev?*
G04 #@! TF.SameCoordinates,Original*
G04 #@! TF.FileFunction,Copper,L2,Bot*
G04 #@! TF.FilePolarity,Positive*
%FSLAX46Y46*%
G04 Gerber Fmt 4.6, Leading zero omitted, Abs format (unit mm)*
G04 Created by KiCad (PCBNEW 9.0.1) date 2026-02-11 02:11:43*
%MOMM*%
%LPD*%
G01*
G04 APERTURE LIST*
G04 Aperture macros list*
%AMRoundRect*
0 Rectangle with rounded corners*
0 $1 Rounding radius*
0 $2 $3 $4 $5 $6 $7 $8 $9 X,Y pos of 4 corners*
0 Add a 4 corners polygon primitive as box body*
4,1,4,$2,$3,$4,$5,$6,$7,$8,$9,$2,$3,0*
0 Add four circle primitives for the rounded corners*
1,1,$1+$1,$2,$3*
1,1,$1+$1,$4,$5*
1,1,$1+$1,$6,$7*
1,1,$1+$1,$8,$9*
0 Add four rect primitives between the rounded corners*
20,1,$1+$1,$2,$3,$4,$5,0*
20,1,$1+$1,$4,$5,$6,$7,0*
20,1,$1+$1,$6,$7,$8,$9,0*
20,1,$1+$1,$8,$9,$2,$3,0*%
G04 Aperture macros list end*
G04 #@! TA.AperFunction,ComponentPad*
%ADD10R,3.000000X3.000000*%
G04 #@! TD*
G04 #@! TA.AperFunction,ComponentPad*
%ADD11C,3.000000*%
G04 #@! TD*
G04 #@! TA.AperFunction,ComponentPad*
%ADD12R,2.020000X5.020000*%
G04 #@! TD*
G04 #@! TA.AperFunction,ComponentPad*
%ADD13O,2.020000X5.020000*%
G04 #@! TD*
G04 #@! TA.AperFunction,ComponentPad*
%ADD14R,3.200000X3.200000*%
G04 #@! TD*
G04 #@! TA.AperFunction,ComponentPad*
%ADD15O,3.200000X3.200000*%
G04 #@! TD*
G04 #@! TA.AperFunction,SMDPad,CuDef*
%ADD16RoundRect,0.250000X-2.050000X-0.300000X2.050000X-0.300000X2.050000X0.300000X-2.050000X0.300000X0*%
G04 #@! TD*
G04 #@! TA.AperFunction,SMDPad,CuDef*
%ADD17RoundRect,0.250002X-4.449998X-5.149998X4.449998X-5.149998X4.449998X5.149998X-4.449998X5.149998X0*%
G04 #@! TD*
G04 #@! TA.AperFunction,SMDPad,CuDef*
%ADD18R,2.200000X1.500000*%
G04 #@! TD*
G04 #@! TA.AperFunction,ViaPad*
%ADD19C,0.600000*%
G04 #@! TD*
G04 #@! TA.AperFunction,Conductor*
%ADD20C,0.200000*%
G04 #@! TD*
G04 APERTURE END LIST*
D10*
X162230000Y-83842500D03*
D11*
X162230000Y-87722500D03*
D12*
X146500000Y-83800000D03*
D13*
X141320000Y-83800000D03*
D14*
X152480000Y-91100000D03*
D15*
X152480000Y-78400000D03*
D16*
X151830000Y-75150000D03*
X151830000Y-73450000D03*
X151830000Y-71750000D03*
D17*
X160980000Y-71750000D03*
D16*
X151830000Y-70050000D03*
X151830000Y-68350000D03*
D18*
X132980000Y-73950000D03*
X132980000Y-67550000D03*
D19*
X144950000Y-70120000D03*
X155390000Y-71150000D03*
X147960000Y-77860000D03*
D20*
X151830000Y-75150000D02*
X148440000Y-78540000D01*
X147250000Y-83050000D02*
X146500000Y-83800000D01*
X145930000Y-66351000D02*
X148260000Y-68681000D01*
X132980000Y-67550000D02*
X136870000Y-67550000D01*
X154290000Y-70050000D02*
X151830000Y-70050000D01*
X144950000Y-70120000D02*
X145020000Y-70050000D01*
X148260000Y-70050000D02*
X151830000Y-70050000D01*
X138069000Y-66351000D02*
X145930000Y-66351000D01*
X148260000Y-68681000D02*
X148260000Y-70050000D01*
X136870000Y-67550000D02*
X138069000Y-66351000D01*
X155390000Y-71150000D02*
X154290000Y-70050000D01*
X145020000Y-70050000D02*
X148260000Y-70050000D01*
X148880000Y-74760000D02*
X148880000Y-73700000D01*
X148880000Y-73700000D02*
X149130000Y-73450000D01*
X132980000Y-73950000D02*
X137100000Y-78070000D01*
X145570000Y-78070000D02*
X147930000Y-75710000D01*
X149130000Y-73450000D02*
X151830000Y-73450000D01*
X147960000Y-77860000D02*
X147960000Y-75740000D01*
X147930000Y-75710000D02*
X148880000Y-74760000D01*
X137100000Y-78070000D02*
X145570000Y-78070000D01*
X147960000Y-75740000D02*
X147930000Y-75710000D01*
X157580000Y-68350000D02*
X160980000Y-71750000D01*
X151830000Y-71750000D02*
X160980000Y-71750000D01*
X151830000Y-68350000D02*
X157580000Y-68350000D01*
M02*
