G04 #@! TF.GenerationSoftware,KiCad,Pcbnew,9.0.1*
G04 #@! TF.CreationDate,2026-02-11T02:11:43+05:30*
G04 #@! TF.ProjectId,kicadfiles.txt,6b696361-6466-4696-9c65-732e7478742e,rev?*
G04 #@! TF.SameCoordinates,Original*
G04 #@! TF.FileFunction,Copper,L1,Top*
G04 #@! TF.FilePolarity,Positive*
%FSLAX46Y46*%
G04 Gerber Fmt 4.6, Leading zero omitted, Abs format (unit mm)*
G04 Created by KiCad (PCBNEW 9.0.1) date 2026-02-11 02:11:43*
%MOMM*%
%LPD*%
G01*
G04 APERTURE LIST*
G04 Aperture macros list*
%AMRoundRect*
0 Rectangle with rounded corners*
0 $1 Rounding radius*
0 $2 $3 $4 $5 $6 $7 $8 $9 X,Y pos of 4 corners*
0 Add a 4 corners polygon primitive as box body*
4,1,4,$2,$3,$4,$5,$6,$7,$8,$9,$2,$3,0*
0 Add four circle primitives for the rounded corners*
1,1,$1+$1,$2,$3*
1,1,$1+$1,$4,$5*
1,1,$1+$1,$6,$7*
1,1,$1+$1,$8,$9*
0 Add four rect primitives between the rounded corners*
20,1,$1+$1,$2,$3,$4,$5,0*
20,1,$1+$1,$4,$5,$6,$7,0*
20,1,$1+$1,$6,$7,$8,$9,0*
20,1,$1+$1,$8,$9,$2,$3,0*%
G04 Aperture macros list end*
G04 #@! TA.AperFunction,ComponentPad*
%ADD10R,3.000000X3.000000*%
G04 #@! TD*
G04 #@! TA.AperFunction,ComponentPad*
%ADD11C,3.000000*%
G04 #@! TD*
G04 #@! TA.AperFunction,SMDPad,CuDef*
%ADD12RoundRect,0.100000X-0.100000X0.130000X-0.100000X-0.130000X0.100000X-0.130000X0.100000X0.130000X0*%
G04 #@! TD*
G04 #@! TA.AperFunction,ComponentPad*
%ADD13R,2.020000X5.020000*%
G04 #@! TD*
G04 #@! TA.AperFunction,ComponentPad*
%ADD14O,2.020000X5.020000*%
G04 #@! TD*
G04 #@! TA.AperFunction,ComponentPad*
%ADD15R,3.200000X3.200000*%
G04 #@! TD*
G04 #@! TA.AperFunction,ComponentPad*
%ADD16O,3.200000X3.200000*%
G04 #@! TD*
G04 #@! TA.AperFunction,SMDPad,CuDef*
%ADD17RoundRect,0.100000X0.130000X0.100000X-0.130000X0.100000X-0.130000X-0.100000X0.130000X-0.100000X0*%
G04 #@! TD*
G04 #@! TA.AperFunction,ViaPad*
%ADD18C,0.600000*%
G04 #@! TD*
G04 #@! TA.AperFunction,Conductor*
%ADD19C,0.200000*%
G04 #@! TD*
G04 APERTURE END LIST*
D10*
X162230000Y-83842500D03*
D11*
X162230000Y-87722500D03*
D12*
X141135000Y-74430000D03*
X141135000Y-75070000D03*
D13*
X146500000Y-83800000D03*
D14*
X141320000Y-83800000D03*
D15*
X152480000Y-91100000D03*
D16*
X152480000Y-78400000D03*
D17*
X141560000Y-69870000D03*
X140920000Y-69870000D03*
D18*
X144950000Y-70120000D03*
X155390000Y-71150000D03*
X147960000Y-77860000D03*
D19*
X140010000Y-69870000D02*
X137860000Y-72020000D01*
X162230000Y-91040000D02*
X161870000Y-91400000D01*
X137900000Y-75320000D02*
X138740000Y-76160000D01*
X156420000Y-80200000D02*
X156440000Y-80180000D01*
X156440000Y-80180000D02*
X155870000Y-79610000D01*
X141520000Y-75455000D02*
X141135000Y-75070000D01*
X137860000Y-72020000D02*
X137900000Y-72060000D01*
X140920000Y-69870000D02*
X140010000Y-69870000D01*
X162230000Y-87722500D02*
X162230000Y-91040000D01*
X156420000Y-90940000D02*
X156420000Y-80200000D01*
X161870000Y-91400000D02*
X156880000Y-91400000D01*
X153690000Y-79610000D02*
X152480000Y-78400000D01*
X141520000Y-76160000D02*
X141520000Y-75455000D01*
X138740000Y-76160000D02*
X141520000Y-76160000D01*
X155870000Y-79610000D02*
X153690000Y-79610000D01*
X137900000Y-72060000D02*
X137900000Y-75320000D01*
X156880000Y-91400000D02*
X156420000Y-90940000D01*
X160510000Y-79010000D02*
X156400000Y-79010000D01*
X141560000Y-69870000D02*
X144700000Y-69870000D01*
X162230000Y-79900000D02*
X161400000Y-79900000D01*
X156400000Y-79010000D02*
X155390000Y-78000000D01*
X162230000Y-83842500D02*
X162230000Y-79900000D01*
X161400000Y-79900000D02*
X160510000Y-79010000D01*
X155390000Y-78000000D02*
X155390000Y-71150000D01*
X144700000Y-69870000D02*
X144950000Y-70120000D01*
X148490000Y-78390000D02*
X147960000Y-77860000D01*
X149690000Y-91100000D02*
X148490000Y-89900000D01*
X152480000Y-91100000D02*
X149690000Y-91100000D01*
X148490000Y-89900000D02*
X148490000Y-78390000D01*
M02*
